<svg xmlns="http://www.w3.org/2000/svg" viewBox="0 0 160 180" role="img" aria-labelledby="title desc">
<title id="title">Whitehouse Crest</title>
<desc id="desc">Shield with red and white stripes, blue field, and a guiding star.</desc>
<defs>
  <linearGradient id="shieldGradient" x1="0" y1="0" x2="0" y2="1">
    <stop offset="0%" stop-color="#0d2c6d"/>
    <stop offset="100%" stop-color="#0a1f4a"/>
  </linearGradient>
  <linearGradient id="highlight" x1="0" y1="0" x2="1" y2="1">
    <stop offset="0%" stop-color="rgba(255,255,255,0.22)"/>
    <stop offset="100%" stop-color="rgba(255,255,255,0)"/>
  </linearGradient>
  <clipPath id="shieldClip">
    <path d="M80 8c-27 0-48 20.5-48 45.8V92c0 35 21.9 66.7 48 80 26.1-13.3 48-45 48-80V53.8C128 28.5 107 8 80 8Z"/>
  </clipPath>
</defs>
<g clip-path="url(#shieldClip)">
  <path fill="url(#shieldGradient)" d="M80 8c-27 0-48 20.5-48 45.8V92c0 35 21.9 66.7 48 80 26.1-13.3 48-45 48-80V53.8C128 28.5 107 8 80 8Z"/>
  <rect x="0" y="78" width="160" height="120" fill="#f5f7fb"/>
  <g fill="#d32f2f">
    <rect x="0" y="78" width="160" height="12"/>
    <rect x="0" y="102" width="160" height="12"/>
    <rect x="0" y="126" width="160" height="12"/>
    <rect x="0" y="150" width="160" height="12"/>
  </g>
  <path fill="url(#highlight)" d="M-4 14c36 6 86 0 130 0s62 40 32 64-94 15-132 16S-6 85-14 60s-2-40 10-46Z"/>
</g>
<path fill="#f5f7fb" d="M80 26c-10.5 0-19 8.7-19 19.5 0 8.4 5.4 15.8 12.9 18.5l-7.4 14.2c-0.7 1.4 0.6 2.9 2.1 2.4l12.4-4.2 12.4 4.2c1.5 0.5 2.8-1 2.1-2.4l-7.4-14.2C93.6 61.3 99 53.9 99 45.5 99 34.7 90.5 26 80 26Z"/>
<path fill="#0a1f4a" d="M80 33l3.8 9.6 10.2.4-8.1 6.3 2.8 9.9-8.7-5.7-8.7 5.7 2.8-9.9-8.1-6.3 10.2-.4L80 33Z"/>
</svg>
