<svg xmlns="http://www.w3.org/2000/svg" viewBox="0 0 96 96" role="img" aria-labelledby="title">
<title id="title">Whitehouse Mark</title>
<defs>
  <clipPath id="clip">
    <path d="M48 6c-16.5 0-30 12.5-30 28v18c0 20.7 14.8 39 30 47 15.2-8 30-26.3 30-47V34C78 18.5 64.5 6 48 6Z"/>
  </clipPath>
</defs>
<g clip-path="url(#clip)">
  <path fill="#0b2e6d" d="M48 6c-16.5 0-30 12.5-30 28v18c0 20.7 14.8 39 30 47 15.2-8 30-26.3 30-47V34C78 18.5 64.5 6 48 6Z"/>
  <rect x="0" y="44" width="96" height="60" fill="#f5f7fb"/>
  <g fill="#d32f2f">
    <rect x="0" y="44" width="96" height="8"/>
    <rect x="0" y="60" width="96" height="8"/>
    <rect x="0" y="76" width="96" height="8"/>
  </g>
</g>
<path fill="#f5f7fb" d="M48 18l2.9 7.3 7.8.3-6.2 4.8 2.1 7.5-6.6-4.3-6.6 4.3 2.1-7.5-6.2-4.8 7.8-.3L48 18Z"/>
</svg>
